<?xml version="1.0" encoding="UTF-8"?>
<svg xmlns="http://www.w3.org/2000/svg" xmlns:xlink="http://www.w3.org/1999/xlink" width="24px" height="24px" viewBox="0 0 24 24" version="1.1">
<g id="surface1">
<path style=" stroke:none;fill-rule:nonzero;fill:rgb(4.705882%,53.333336%,93.725491%);fill-opacity:1;" d="M 11.945312 -0.0078125 C 11.988281 -0.0078125 12.035156 -0.0078125 12.078125 -0.0078125 C 12.515625 -0.00390625 12.945312 0.00390625 13.378906 0.0585938 C 13.410156 0.0625 13.4375 0.0664062 13.464844 0.0703125 C 14.773438 0.230469 16.035156 0.609375 17.21875 1.179688 C 17.25 1.195312 17.25 1.195312 17.28125 1.210938 C 18.085938 1.59375 18.855469 2.085938 19.539062 2.660156 C 19.578125 2.691406 19.613281 2.71875 19.652344 2.75 C 19.742188 2.824219 19.828125 2.898438 19.914062 2.976562 C 19.953125 3.015625 19.992188 3.050781 20.035156 3.082031 C 20.226562 3.25 20.410156 3.429688 20.589844 3.609375 C 20.601562 3.621094 20.617188 3.632812 20.628906 3.644531 C 20.703125 3.722656 20.777344 3.800781 20.847656 3.882812 C 20.894531 3.933594 20.941406 3.984375 20.988281 4.035156 C 21.070312 4.128906 21.152344 4.222656 21.230469 4.320312 C 21.265625 4.363281 21.304688 4.410156 21.339844 4.453125 C 21.503906 4.648438 21.652344 4.851562 21.800781 5.058594 C 21.8125 5.078125 21.8125 5.078125 21.828125 5.101562 C 22.1875 5.609375 22.5 6.144531 22.78125 6.699219 C 22.789062 6.71875 22.796875 6.734375 22.808594 6.753906 C 23.40625 7.949219 23.773438 9.253906 23.933594 10.578125 C 23.941406 10.617188 23.945312 10.65625 23.949219 10.695312 C 24.058594 11.574219 24.054688 12.523438 23.941406 13.398438 C 23.9375 13.429688 23.933594 13.460938 23.929688 13.492188 C 23.832031 14.242188 23.671875 14.980469 23.441406 15.699219 C 23.429688 15.734375 23.429688 15.734375 23.417969 15.769531 C 22.921875 17.3125 22.078125 18.773438 20.984375 19.96875 C 20.949219 20.011719 20.910156 20.054688 20.875 20.09375 C 20.796875 20.183594 20.71875 20.265625 20.640625 20.351562 C 20.628906 20.363281 20.613281 20.378906 20.601562 20.394531 C 20.476562 20.527344 20.347656 20.65625 20.210938 20.777344 C 20.15625 20.824219 20.105469 20.871094 20.054688 20.921875 C 19.917969 21.046875 19.785156 21.164062 19.640625 21.28125 C 19.617188 21.300781 19.59375 21.320312 19.570312 21.339844 C 18.917969 21.875 18.203125 22.328125 17.460938 22.71875 C 17.441406 22.730469 17.421875 22.738281 17.402344 22.75 C 16.910156 23.003906 16.402344 23.214844 15.878906 23.398438 C 15.859375 23.40625 15.835938 23.414062 15.816406 23.421875 C 15.324219 23.597656 14.820312 23.730469 14.308594 23.84375 C 14.292969 23.847656 14.273438 23.851562 14.257812 23.855469 C 14.132812 23.878906 14.019531 23.878906 13.894531 23.878906 C 13.769531 23.878906 13.648438 23.898438 13.523438 23.917969 C 13.054688 23.984375 12.585938 24.007812 12.113281 24.007812 C 12.070312 24.007812 12.027344 24.007812 11.984375 24.007812 C 11.417969 24.003906 10.867188 23.964844 10.304688 23.875 C 10.230469 23.863281 10.15625 23.855469 10.078125 23.859375 C 10.074219 23.867188 10.066406 23.875 10.058594 23.878906 C 9.949219 23.882812 9.855469 23.875 9.746094 23.851562 C 9.726562 23.847656 9.726562 23.847656 9.703125 23.839844 C 9.660156 23.832031 9.613281 23.820312 9.566406 23.808594 C 9.550781 23.804688 9.535156 23.804688 9.519531 23.800781 C 8.492188 23.566406 7.519531 23.210938 6.578125 22.738281 C 6.550781 22.726562 6.550781 22.726562 6.523438 22.710938 C 5.894531 22.394531 5.296875 22.007812 4.738281 21.578125 C 4.722656 21.566406 4.722656 21.566406 4.703125 21.550781 C 4.523438 21.414062 4.351562 21.269531 4.179688 21.121094 C 4.164062 21.105469 4.148438 21.09375 4.132812 21.078125 C 4.097656 21.046875 4.058594 21.011719 4.019531 20.980469 C 4 20.960938 4 20.960938 3.976562 20.941406 C 3.457031 20.476562 3.457031 20.476562 3.242188 20.230469 C 3.195312 20.175781 3.148438 20.125 3.097656 20.074219 C 2.972656 19.941406 2.855469 19.804688 2.738281 19.660156 C 2.71875 19.636719 2.699219 19.613281 2.679688 19.589844 C 1.507812 18.167969 0.667969 16.441406 0.0742188 13.503906 C 0.0703125 13.46875 0.0703125 13.46875 0.0664062 13.433594 C 0.0546875 13.355469 0.046875 13.277344 0.0390625 13.199219 C 0.0390625 13.183594 0.0351562 13.167969 0.0351562 13.148438 C 0 12.789062 -0.0078125 12.429688 -0.0078125 12.066406 C -0.0078125 12.023438 -0.0078125 11.976562 -0.0078125 11.929688 C -0.00390625 11.492188 0.00390625 11.054688 0.0585938 10.621094 C 0.0625 10.589844 0.0664062 10.5625 0.0703125 10.535156 C 0.230469 9.226562 0.609375 7.964844 1.179688 6.78125 C 1.1875 6.761719 1.199219 6.742188 1.207031 6.722656 C 1.597656 5.917969 2.085938 5.144531 2.660156 4.460938 C 2.691406 4.421875 2.71875 4.386719 2.75 4.347656 C 2.824219 4.257812 2.898438 4.171875 2.976562 4.085938 C 3.015625 4.046875 3.050781 4.007812 3.082031 3.964844 C 3.25 3.773438 3.429688 3.589844 3.609375 3.410156 C 3.621094 3.398438 3.632812 3.382812 3.644531 3.371094 C 3.722656 3.296875 3.800781 3.222656 3.882812 3.152344 C 3.933594 3.105469 3.984375 3.058594 4.035156 3.011719 C 4.128906 2.929688 4.222656 2.847656 4.320312 2.769531 C 4.363281 2.734375 4.410156 2.695312 4.453125 2.660156 C 4.648438 2.496094 4.851562 2.347656 5.058594 2.199219 C 5.070312 2.191406 5.082031 2.183594 5.09375 2.175781 C 6.570312 1.128906 8.257812 0.449219 10.488281 0.0742188 C 10.511719 0.0703125 10.535156 0.0703125 10.558594 0.0664062 C 10.640625 0.0546875 10.71875 0.046875 10.800781 0.0390625 C 10.816406 0.0390625 10.835938 0.0351562 10.855469 0.0351562 C 11.21875 0 11.578125 -0.0078125 11.945312 -0.0078125 Z M 11.945312 -0.0078125 "/>
<path style=" stroke:none;fill-rule:nonzero;fill:rgb(99.607843%,99.607843%,99.607843%);fill-opacity:1;" d="M 17.1875 4.875 C 17.214844 4.878906 17.214844 4.878906 17.238281 4.882812 C 17.355469 4.898438 17.355469 4.898438 17.398438 4.921875 C 17.398438 5.929688 17.398438 6.941406 17.398438 7.980469 C 16.472656 7.984375 16.472656 7.984375 16.183594 7.988281 C 16.09375 7.988281 16.09375 7.988281 16.007812 7.988281 C 15.96875 7.988281 15.929688 7.988281 15.890625 7.988281 C 15.371094 7.992188 14.8125 8.054688 14.421875 8.441406 C 14.128906 8.796875 14.058594 9.210938 14.054688 9.660156 C 14.054688 9.683594 14.054688 9.710938 14.054688 9.738281 C 14.054688 9.804688 14.054688 9.875 14.054688 9.945312 C 14.054688 10.011719 14.054688 10.074219 14.050781 10.140625 C 14.050781 10.332031 14.050781 10.519531 14.046875 10.710938 C 14.046875 11.136719 14.042969 11.5625 14.039062 12 C 15.089844 12 16.140625 12 17.21875 12 C 17.195312 12.171875 17.171875 12.34375 17.144531 12.511719 C 17.140625 12.535156 17.136719 12.554688 17.132812 12.578125 C 17.121094 12.648438 17.109375 12.71875 17.097656 12.789062 C 17.089844 12.835938 17.082031 12.886719 17.074219 12.9375 C 17.058594 13.039062 17.042969 13.140625 17.023438 13.246094 C 17 13.394531 16.976562 13.546875 16.953125 13.695312 C 16.949219 13.71875 16.945312 13.746094 16.941406 13.769531 C 16.9375 13.792969 16.933594 13.816406 16.929688 13.839844 C 16.871094 14.195312 16.816406 14.550781 16.757812 14.90625 C 16.753906 14.9375 16.746094 14.96875 16.742188 15 C 16.734375 15.042969 16.730469 15.085938 16.722656 15.128906 C 16.71875 15.152344 16.714844 15.175781 16.710938 15.199219 C 16.703125 15.253906 16.691406 15.304688 16.679688 15.359375 C 15.808594 15.359375 14.9375 15.359375 14.039062 15.359375 C 14.039062 18.152344 14.039062 20.945312 14.039062 23.820312 C 13.792969 23.886719 13.792969 23.886719 13.679688 23.902344 C 13.65625 23.90625 13.628906 23.910156 13.605469 23.910156 C 13.578125 23.914062 13.554688 23.917969 13.527344 23.921875 C 13.503906 23.925781 13.480469 23.925781 13.453125 23.929688 C 13.007812 23.988281 12.5625 24.007812 12.113281 24.007812 C 12.070312 24.007812 12.027344 24.007812 11.984375 24.007812 C 11.566406 24.003906 11.15625 23.996094 10.738281 23.941406 C 10.714844 23.9375 10.6875 23.933594 10.664062 23.929688 C 10.246094 23.875 10.246094 23.875 10.078125 23.820312 C 10.078125 21.027344 10.078125 18.238281 10.078125 15.359375 C 9.089844 15.359375 8.101562 15.359375 7.078125 15.359375 C 7.078125 14.25 7.078125 13.140625 7.078125 12 C 8.070312 12 9.058594 12 10.078125 12 C 10.078125 11.023438 10.078125 11.023438 10.074219 10.046875 C 10.074219 9.855469 10.074219 9.855469 10.074219 9.765625 C 10.074219 9.703125 10.070312 9.644531 10.070312 9.582031 C 10.0625 8.207031 10.378906 6.925781 11.351562 5.910156 C 11.773438 5.492188 12.304688 5.1875 12.859375 4.980469 C 12.882812 4.972656 12.90625 4.964844 12.929688 4.953125 C 14.289062 4.472656 15.796875 4.691406 17.1875 4.875 Z M 17.1875 4.875 "/>
</g>
</svg>
